<svg width="57" height="21" viewBox="0 0 57 21" fill="none" xmlns="http://www.w3.org/2000/svg">
<g clip-path="url(#clip0_2649_77)">
<path d="M5.29145 11.4216L7.00064 13.5864L9.75399 13.4081L8.22256 15.7015L9.24468 18.263L6.58909 17.5156L4.46837 19.2801L4.35823 16.5243L2.02534 15.0538L4.61248 14.0949L5.29145 11.4216Z" fill="#FFC722"/>
</g>
<g clip-path="url(#clip1_2649_77)">
<path d="M16.4214 9.05164L18.1307 11.2164L20.8843 11.0381L19.3527 13.3315L20.3749 15.893L17.7191 15.1457L15.5981 16.9102L15.488 14.1544L13.155 12.6839L15.7424 11.725L16.4214 9.05164Z" fill="#FFC722"/>
</g>
<g clip-path="url(#clip2_2649_77)">
<path d="M27.551 6.68178L29.2602 8.84659L32.0135 8.66829L30.4821 10.9616L31.5042 13.5232L28.8486 12.7758L26.7279 14.5403L26.6178 11.7845L24.2849 10.314L26.872 9.35511L27.551 6.68178Z" fill="#FFC722"/>
</g>
<g clip-path="url(#clip3_2649_77)">
<path d="M38.3096 4.39083L40.0188 6.55563L42.7722 6.37734L41.2407 8.67069L42.2629 11.2323L39.6073 10.4849L37.4866 12.2493L37.3764 9.49355L35.0435 8.02305L37.6307 7.06416L38.3096 4.39083Z" fill="#FFC722"/>
</g>
<g clip-path="url(#clip4_2649_77)">
<path d="M50.0465 1.89162L51.7556 4.05643L54.509 3.87813L52.9776 6.17149L53.9997 8.73305L51.3441 7.98566L49.2234 9.7501L49.1132 6.99434L46.7803 5.52384L49.3675 4.56495L50.0465 1.89162Z" fill="#FFC722"/>
</g>
<defs>
<clipPath id="clip0_2649_77">
<rect width="9.48231" height="9.48231" fill="white" transform="translate(0.489746 11.636) rotate(-12.0208)"/>
</clipPath>
<clipPath id="clip1_2649_77">
<rect width="9.48317" height="9.48231" fill="white" transform="translate(11.619 9.26617) rotate(-12.0208)"/>
</clipPath>
<clipPath id="clip2_2649_77">
<rect width="9.48231" height="9.48231" fill="white" transform="translate(22.7491 6.89618) rotate(-12.0208)"/>
</clipPath>
<clipPath id="clip3_2649_77">
<rect width="9.48231" height="9.48231" fill="white" transform="translate(33.5078 4.60522) rotate(-12.0208)"/>
</clipPath>
<clipPath id="clip4_2649_77">
<rect width="9.48231" height="9.48231" fill="white" transform="translate(45.2446 2.10602) rotate(-12.0208)"/>
</clipPath>
</defs>
</svg>
