<svg width="86" height="82" viewBox="0 0 86 82" fill="none" xmlns="http://www.w3.org/2000/svg">
<path d="M19.7748 31.9575L18.7181 31.5239C18.1601 31.291 17.5168 31.5603 17.289 32.1217C17.0866 32.6119 17.2677 33.1669 17.69 33.4489C17.751 33.4897 17.8104 33.522 17.8816 33.5475L62.9627 52.1202C63.5207 52.3531 64.164 52.0839 64.3918 51.5224C64.6247 50.9644 64.3555 50.3211 63.7992 50.0967L41.2451 40.8086L45.9067 35.9546C46.1546 35.6935 46.2618 35.3237 46.1875 34.9725C46.1131 34.6212 45.869 34.3257 45.5366 34.1846L42.9516 33.1203L43.2564 29.7338C43.3026 29.2571 43.0281 28.8089 42.5854 28.6236L40.1395 27.6154L40.7788 26.0634C41.0117 25.5053 40.7391 24.8671 40.1861 24.6376C39.6281 24.4047 38.9848 24.674 38.7603 25.2303L38.1211 26.7823L35.151 25.5565L35.7903 24.0045C36.0232 23.4464 35.7506 22.8082 35.1977 22.5787C34.6396 22.3458 33.9963 22.615 33.7685 23.1765L33.1292 24.7285L30.1592 23.5027L30.7985 21.9507C31.0314 21.3926 30.7621 20.7493 30.2058 20.5249C29.6477 20.292 29.0045 20.5612 28.78 21.1176L28.1408 22.6696L26.2088 21.8722C25.9442 21.7617 25.6405 21.7648 25.3706 21.8715C25.1058 21.9816 24.8885 22.1969 24.7831 22.4649L23.6711 25.1652L22.8926 24.8439C22.5991 24.7214 22.2666 24.7348 21.9865 24.8788C21.7013 25.0193 21.4975 25.2805 21.4175 25.5875L19.7969 31.9575L19.7748 31.9575ZM39.0808 39.9075L21.8204 32.794L23.2044 27.34L23.8337 27.5985L43.2261 35.5842L39.0842 39.9024L39.0808 39.9075ZM26.3714 24.3055L41.0077 30.336L40.8365 32.2447L25.676 25.9966L26.3714 24.3055Z" fill="#F24922"/>
<path d="M39.6571 35.0013C39.0753 34.7599 38.4116 35.0376 38.1702 35.6194C37.9288 36.2012 38.2065 36.8649 38.7883 37.1063C39.3701 37.3477 40.0337 37.07 40.2751 36.4882C40.5166 35.9064 40.2388 35.2427 39.6571 35.0013Z" fill="#F24922"/>
<path d="M55.4678 34.6589C56.2752 34.9921 56.7733 35.8324 56.681 36.6977C56.6365 37.1167 56.8296 37.5106 57.1603 37.7314C57.2519 37.7926 57.3536 37.8384 57.4605 37.8657C57.9218 38.1223 58.509 38.0142 58.8521 37.5886C59.3905 36.9035 60.3392 36.6617 61.1466 36.9949C61.7046 37.2278 62.3479 36.9586 62.5724 36.4023C62.8053 35.8442 62.536 35.2009 61.9797 34.9765C60.8789 34.5208 59.6555 34.5792 58.6268 35.0619C58.2324 33.9892 57.4051 33.091 56.3043 32.6353C55.7463 32.4024 55.1029 32.6717 54.8785 33.228C54.6456 33.7861 54.9148 34.4293 55.4712 34.6538L55.4678 34.6589Z" fill="#F24922"/>
<path d="M48.0665 27.1913C48.8739 27.5245 49.372 28.3648 49.2797 29.2301C49.2352 29.6492 49.4283 30.043 49.759 30.2638C49.8505 30.325 49.9523 30.3709 50.0592 30.3981C50.5205 30.6547 51.1077 30.5466 51.4508 30.121C51.9943 29.4394 52.9379 29.1941 53.7453 29.5273C54.3033 29.7603 54.9466 29.491 55.1744 28.9296C55.4074 28.3715 55.1381 27.7283 54.5818 27.5038C53.4809 27.0482 52.2575 27.1065 51.2255 27.5943C50.831 26.5217 50.0038 25.6234 48.903 25.1678C48.3449 24.9348 47.7016 25.2041 47.4738 25.7655C47.2408 26.3236 47.5135 26.9618 48.0665 27.1913Z" fill="#F24922"/>
<path d="M71.822 58.6603C71.8308 58.3718 71.7258 58.0884 71.5292 57.8761L67.6505 53.6819L76.3128 32.6595C76.4267 32.3898 76.4202 32.0912 76.3135 31.8213C76.2035 31.5565 75.9882 31.3392 75.7202 31.2337L23.5474 9.74181C23.2828 9.6313 22.9791 9.63443 22.7092 9.7411C22.4444 9.85117 22.2271 10.0665 22.1216 10.3345L12.1127 34.6289C11.9461 35.0325 12.0407 35.4856 12.3204 35.7828L50.6413 77.2002C50.7024 77.263 50.7668 77.3208 50.838 77.3683C51.0059 77.4804 51.1993 77.5434 51.3995 77.552C51.6879 77.5608 51.9714 77.4558 52.1836 77.2591L71.4651 59.415C71.6774 59.2184 71.8031 58.9419 71.8169 58.6569L71.822 58.6603ZM23.7286 12.1802L73.8778 32.8356L64.7054 55.1065L14.5562 34.451L23.7286 12.1802ZM51.5052 74.9154L17.3037 37.9486L21.1761 39.5417L30.2015 49.2919C30.2626 49.3548 30.327 49.4125 30.3983 49.4601C30.8103 49.7353 31.3686 49.7035 31.749 49.3543C32.1921 48.9441 32.2216 48.2501 31.8113 47.8069L26.0001 41.5275L29.9928 43.1716L39.6201 53.5739C39.6811 53.6367 39.7456 53.6944 39.8168 53.742C40.2289 54.0172 40.7871 53.9855 41.1675 53.6362C41.6107 53.226 41.6401 52.532 41.2299 52.0888L34.8168 45.1574L47.6076 50.4262L54.7073 58.1031C54.7683 58.166 54.8328 58.2237 54.904 58.2713C55.3161 58.5465 55.8744 58.5147 56.2547 58.1655C56.6979 57.7553 56.7273 57.0613 56.3171 56.6181L52.4231 52.4137L56.4159 54.0578L63.1104 61.2949C63.1714 61.3577 63.2359 61.4155 63.3071 61.4631C63.7192 61.7383 64.2774 61.7065 64.6578 61.3573C65.101 60.947 65.1304 60.2531 64.7202 59.8099L61.2347 56.0402L64.9053 57.55C65.4633 57.7829 66.1066 57.5136 66.331 56.9573L66.7595 55.9192L69.2091 58.5631L51.5323 74.9188L51.5052 74.9154Z" fill="#F24922"/>
<path d="M46.8329 64.0549L34.9781 51.238C34.5679 50.7948 33.8739 50.7654 33.4308 51.1756C32.9876 51.5859 32.9581 52.2798 33.3684 52.723L45.2232 65.54C45.2842 65.6028 45.3486 65.6605 45.4199 65.7081C45.832 65.9833 46.3902 65.9515 46.7706 65.6023C47.2138 65.1921 47.2432 64.4981 46.8329 64.0549Z" fill="#F24922"/>
<path d="M55.8917 67.9507L44.5658 55.7077C44.1556 55.2645 43.4616 55.2351 43.0184 55.6454C42.5752 56.0556 42.5458 56.7495 42.956 57.1927L54.2819 69.4358C54.343 69.4986 54.4074 69.5563 54.4786 69.6039C54.8907 69.8791 55.4489 69.8473 55.8293 69.4981C56.2725 69.0879 56.302 68.3939 55.8917 67.9507Z" fill="#F24922"/>
<path d="M58.8229 65.2362L45.3661 50.6872C44.9558 50.244 44.2619 50.2146 43.8187 50.6249C43.3755 51.0351 43.3461 51.7291 43.7563 52.1723L57.2131 66.7212C57.2742 66.784 57.3386 66.8418 57.4098 66.8893C57.8219 67.1646 58.3801 67.1328 58.7605 66.7836C59.2037 66.3733 59.2331 65.6794 58.8229 65.2362Z" fill="#F24922"/>
<path d="M61.7568 62.5178L60.1446 60.779C59.7344 60.3358 59.0404 60.3064 58.5972 60.7167C58.1541 61.1269 58.1246 61.8208 58.5349 62.264L60.147 64.0028C60.2081 64.0657 60.2725 64.1234 60.3438 64.171C60.7558 64.4462 61.3141 64.4144 61.6945 64.0652C62.1376 63.655 62.1671 62.961 61.7568 62.5178Z" fill="#F24922"/>
</svg>
