<svg width="74" height="70" viewBox="0 0 74 70" fill="none" xmlns="http://www.w3.org/2000/svg">
<path d="M17.7776 13.2701C18.0294 13.4859 18.3316 13.5939 18.641 13.5939C19.0007 13.5939 19.3676 13.4428 19.6266 13.1478L20.7562 11.8671C21.2311 11.3275 21.1807 10.5001 20.6339 10.0181C20.0943 9.5432 19.2669 9.59357 18.7849 10.1404L17.6553 11.4211C17.1804 11.9607 17.2308 12.7881 17.7776 13.2701Z" fill="#F24922"/>
<path d="M15.2233 11.7171C15.4247 11.825 15.6334 11.8754 15.8492 11.8754C16.3169 11.8754 16.763 11.6308 17.0004 11.1919L17.8925 9.54426C18.2379 8.91111 18.0005 8.11249 17.3673 7.76714C16.7342 7.42179 15.9356 7.65922 15.5902 8.29237L14.698 9.93996C14.3527 10.5731 14.5901 11.3717 15.2233 11.7171Z" fill="#F24922"/>
<path d="M12.8204 10.5057C12.8923 10.5201 12.9715 10.5273 13.0434 10.5273C13.6693 10.5273 14.2234 10.0813 14.3313 9.44092L14.6334 7.68538C14.7558 6.9731 14.2809 6.29678 13.5686 6.17447C12.8563 6.05216 12.18 6.527 12.0577 7.23929L11.7555 8.99482C11.6332 9.70711 12.1081 10.3834 12.8204 10.5057Z" fill="#F24922"/>
<path d="M9.46043 6.87317L0.77631 10.7224C0.114387 11.0174 -0.18061 11.7872 0.114377 12.4492C0.330221 12.9384 0.812277 13.2262 1.30872 13.2262C1.48859 13.2262 1.66845 13.1902 1.84113 13.1111L10.5253 9.26185C11.1872 8.96687 11.4822 8.197 11.1872 7.53508C10.8922 6.87316 10.1224 6.57818 9.46043 6.87317Z" fill="#F24922"/>
<path d="M73.7243 29.1982L64.4717 12.4991L66.0402 9.81538C66.4071 9.18943 66.1913 8.39081 65.5725 8.02387C64.9466 7.65694 64.148 7.87278 63.781 8.49153L62.2845 11.0529L42.8081 11.391C42.2182 11.3982 41.7145 11.8011 41.5634 12.3695C41.4196 12.9379 41.6642 13.5351 42.175 13.8301L56.0034 21.8163L49.7943 32.4575L32.9513 28.4715L33.1023 25.2267C35.1888 24.8741 36.8868 23.3128 37.3904 21.1904C38.0524 18.3772 36.3544 15.5496 33.5844 14.8014L33.6851 12.535C36.7141 12.3767 39.2827 10.2543 39.9878 7.26841C40.0669 6.93025 40.0094 6.57771 39.8295 6.28272C39.6496 5.98773 39.3546 5.77908 39.0165 5.69994L34.1024 4.53438L34.1959 1.36867C34.2319 0.649188 33.6707 0.0376116 32.9513 0.00163751C32.2318 -0.0343366 31.6202 0.526867 31.5842 1.24635L31.5051 3.92282L28.2243 3.14579C27.5192 2.98031 26.8141 3.41198 26.6486 4.11707C26.2241 5.90139 26.5263 7.73607 27.4832 9.29735C28.325 10.6572 29.5841 11.6644 31.0806 12.1753L30.9655 14.7582C29.0229 15.2115 27.4688 16.7152 26.9939 18.7297C26.3536 21.435 27.9077 24.1618 30.4978 25.0252L30.3683 27.86L27.9077 27.2772L22.4612 13.8013C22.1878 13.1322 21.4251 12.8084 20.756 13.0818C20.0869 13.3552 19.7631 14.1179 20.0366 14.787L24.7851 26.5505L21.1014 25.6799C20.6337 25.572 20.1445 25.7231 19.8207 26.0828C16.6622 29.6227 14.3958 34.0475 13.2518 38.8752C9.93503 52.9123 16.9932 66.64 28.9941 69.482C30.4547 69.8273 31.9584 70 33.4549 70C38.6064 70 43.7794 67.9207 48.0244 64.1506C52.2765 60.3661 55.3919 55.0492 56.7805 49.171C57.9244 44.3433 57.8741 39.3717 56.6438 34.7886C56.5214 34.3209 56.1473 33.9684 55.6797 33.8533L52.4492 33.0906L58.2626 23.1258L71.9615 31.0401C72.163 31.1552 72.3932 31.2128 72.6163 31.2128H72.6307C73.3501 31.2128 73.9329 30.6228 73.9329 29.9033C73.9329 29.6371 73.8538 29.3925 73.7243 29.191V29.1982ZM29.7064 7.93034C29.3466 7.34756 29.138 6.70722 29.0876 6.0453L36.9372 7.90155C36.1889 9.14626 34.8363 9.93768 33.3182 9.93768C32.9872 9.93768 32.6635 9.90172 32.3397 9.82258C31.2389 9.56357 30.3036 8.88724 29.7064 7.92314V7.93034ZM29.5337 19.3413C29.8287 18.1038 30.9151 17.2404 32.1814 17.2404C32.3901 17.2404 32.6059 17.262 32.8145 17.3124C34.2751 17.6577 35.1888 19.1327 34.8435 20.5932C34.5485 21.8307 33.4621 22.6941 32.1958 22.6941C31.9871 22.6941 31.7713 22.6725 31.5626 22.6221C30.1021 22.2768 29.1883 20.8019 29.5409 19.3413H29.5337ZM54.2335 48.5738C51.6578 59.474 42.9161 67.3883 33.4549 67.3883C32.1598 67.3883 30.8576 67.2372 29.5985 66.935C19.0005 64.4312 12.8058 52.1137 15.7988 39.4796C16.7773 35.3354 18.6623 31.5221 21.2741 28.4068L54.3127 36.2204C55.248 40.1703 55.2264 44.4296 54.2407 48.5738H54.2335ZM47.5639 13.9308L62.1262 13.679L69.1844 26.4138L47.5639 13.9236V13.9308Z" fill="#F24922"/>
<path d="M27.7641 64.8196C28.4908 65.4096 29.4981 65.8773 30.5989 66.1363C31.232 66.2874 31.8508 66.3593 32.4552 66.3593C34.3762 66.3593 35.7 65.5967 36.0022 64.3232C36.2252 63.3807 35.7935 62.3878 34.8222 61.5963C34.0956 61.0064 33.0883 60.5387 31.9875 60.2797C31.3543 60.1286 30.7356 60.0566 30.1312 60.0566C28.2102 60.0566 26.8864 60.8193 26.5842 62.0928C26.3611 63.0353 26.7928 64.0282 27.7641 64.8196ZM30.1312 62.6684C30.5269 62.6684 30.9586 62.7187 31.3831 62.8194C32.3112 63.0353 32.9084 63.395 33.2178 63.654C33.0379 63.6972 32.7861 63.7332 32.4552 63.7332C32.0594 63.7332 31.6277 63.6828 31.2032 63.5821C30.2751 63.3663 29.6779 63.0065 29.3686 62.7475C29.5484 62.7043 29.8003 62.6684 30.1312 62.6684Z" fill="#F24922"/>
</svg>
