<svg width="39" height="40" viewBox="0 0 39 40" fill="none" xmlns="http://www.w3.org/2000/svg">
<path d="M38.7105 24.6595L36.9062 13.624L38.301 12.4539C38.627 12.1812 38.6657 11.6982 38.397 11.3737C38.1243 11.0478 37.6413 11.0091 37.3167 11.2778L35.9857 12.3947L25.1793 8.73499C24.8525 8.62246 24.4952 8.74517 24.2997 9.02875C24.1081 9.31376 24.1251 9.69135 24.3485 9.95489L30.3967 17.0895L24.8714 21.7311L16.371 16.207L17.0951 14.4476C18.3152 14.6652 19.5598 14.1396 20.2567 13.0687C21.1772 11.6481 20.7993 9.75366 19.4196 8.79404L19.9227 7.56422C21.6243 8.07509 23.4598 7.41195 24.4382 5.90473C24.5486 5.7339 24.5865 5.52813 24.5456 5.32995C24.5046 5.13177 24.3832 4.95846 24.2123 4.84804L21.7328 3.23491L22.4095 1.50775C22.5714 1.11811 22.3828 0.670057 21.9931 0.508139C21.6035 0.346221 21.1554 0.534907 20.9935 0.92454L20.4213 2.38477L18.7657 1.30841C18.4095 1.07792 17.9355 1.17672 17.705 1.53284C17.1186 2.43292 16.9229 3.50428 17.1422 4.55416C17.3379 5.47023 17.8333 6.2743 18.5576 6.85151L17.984 8.25306C16.8233 8.11939 15.6694 8.64167 15.0098 9.65876C14.1225 11.024 14.4409 12.8346 15.6987 13.8221L15.0675 15.3597L13.8257 14.5524L13.4836 6.04601C13.465 5.62305 13.1084 5.29392 12.6854 5.31254C12.2624 5.33116 11.9333 5.68777 11.9519 6.11072L12.2474 13.5351L10.388 12.3276C10.1514 12.1757 9.85181 12.1624 9.60224 12.2969C7.16153 13.6251 5.03801 15.6174 3.45383 18.0536C-1.14713 25.139 0.0339513 34.1025 6.09029 38.0395C6.82747 38.5184 7.62254 38.9106 8.44776 39.2061C11.2884 40.2234 14.5515 40.0984 17.6368 38.8578C20.7289 37.6106 23.4967 35.294 25.4232 32.3268C27.0074 29.8907 27.9614 27.1392 28.188 24.3691C28.2129 24.087 28.0763 23.8188 27.8411 23.6629L26.2104 22.6045L31.3838 18.2577L37.3748 25.327C37.4631 25.4303 37.5787 25.5075 37.7017 25.5515L37.7097 25.5543C38.1064 25.6964 38.5443 25.4862 38.6863 25.0895C38.7389 24.9427 38.7436 24.7921 38.712 24.6555L38.7105 24.6595ZM18.6381 4.2394C18.5548 3.847 18.5662 3.4527 18.6692 3.07776L22.631 5.65144C21.9726 6.19003 21.0704 6.35932 20.2333 6.05953C20.0508 5.99417 19.8794 5.91041 19.7165 5.80283C19.1606 5.44262 18.7784 4.88498 18.6395 4.23542L18.6381 4.2394ZM16.2895 10.4975C16.6965 9.8734 17.4661 9.61186 18.1643 9.86193C18.2794 9.90313 18.3942 9.95765 18.4993 10.0266C19.2364 10.5055 19.449 11.4992 18.9702 12.2364C18.5631 12.8606 17.7936 13.1221 17.0953 12.872C16.9803 12.8308 16.8655 12.7763 16.7604 12.7073C16.0232 12.2285 15.8106 11.2347 16.2934 10.499L16.2895 10.4975ZM24.1367 31.4946C20.5638 36.9965 14.1806 39.6343 8.96351 37.7659C8.24939 37.5102 7.56114 37.1697 6.92652 36.7544C1.57704 33.2809 0.593563 25.2655 4.73893 18.8899C6.09688 16.7979 7.88936 15.0674 9.94472 13.8653L26.6199 24.6983C26.3556 27.061 25.5026 29.4055 24.1407 31.496L24.1367 31.4946ZM27.3002 11.0746L35.3798 13.8115L36.757 22.2276L27.3016 11.0707L27.3002 11.0746Z" fill="#F24922"/>
</svg>
