<svg width="46" height="44" viewBox="0 0 46 44" fill="none" xmlns="http://www.w3.org/2000/svg">
<path d="M10.5981 17.1272L10.0318 16.8948C9.73268 16.77 9.38792 16.9143 9.26582 17.2152C9.15739 17.4779 9.25445 17.7753 9.48075 17.9265C9.51347 17.9483 9.54527 17.9656 9.58345 17.9793L33.7441 27.9331C34.0431 28.058 34.3879 27.9137 34.51 27.6128C34.6348 27.3137 34.4905 26.9689 34.1923 26.8486L22.1048 21.8708L24.6031 19.2694C24.736 19.1295 24.7935 18.9313 24.7536 18.743C24.7137 18.5547 24.5829 18.3964 24.4047 18.3208L23.0194 17.7504L23.1827 15.9354C23.2075 15.6799 23.0604 15.4397 22.8231 15.3404L21.5123 14.8001L21.8549 13.9683C21.9797 13.6692 21.8336 13.3272 21.5372 13.2042C21.2382 13.0794 20.8934 13.2237 20.7731 13.5218L20.4305 14.3536L18.8388 13.6966L19.1814 12.8649C19.3062 12.5658 19.1601 12.2238 18.8638 12.1008C18.5647 11.9759 18.2199 12.1202 18.0978 12.4211L17.7552 13.2529L16.1635 12.5959L16.5061 11.7642C16.6309 11.4651 16.4866 11.1203 16.1884 11C15.8894 10.8752 15.5446 11.0195 15.4243 11.3177L15.0817 12.1494L14.0463 11.7221C13.9045 11.6629 13.7417 11.6646 13.5971 11.7217C13.4552 11.7807 13.3387 11.8961 13.2822 12.0397L12.6863 13.4869L12.269 13.3147C12.1117 13.2491 11.9335 13.2563 11.7834 13.3334C11.6306 13.4088 11.5213 13.5487 11.4784 13.7133L10.6099 17.1272L10.5981 17.1272ZM20.9448 21.3879L11.6944 17.5755L12.4361 14.6525L12.7734 14.791L23.1665 19.0709L20.9467 21.3852L20.9448 21.3879ZM14.1334 13.0262L21.9776 16.2582L21.8858 17.2811L13.7607 13.9325L14.1334 13.0262Z" fill="#F24922"/>
<path d="M21.2536 18.7589C20.9418 18.6295 20.5862 18.7783 20.4568 19.0901C20.3274 19.4019 20.4762 19.7576 20.788 19.887C21.0998 20.0164 21.4555 19.8675 21.5849 19.5557C21.7143 19.2439 21.5654 18.8882 21.2536 18.7589Z" fill="#F24922"/>
<path d="M29.7272 18.575C30.1599 18.7536 30.4269 19.204 30.3774 19.6677C30.3536 19.8923 30.4571 20.1034 30.6343 20.2217C30.6834 20.2545 30.7379 20.2791 30.7952 20.2937C31.0424 20.4312 31.3571 20.3733 31.541 20.1452C31.8295 19.778 32.338 19.6484 32.7707 19.827C33.0698 19.9519 33.4145 19.8076 33.5348 19.5094C33.6596 19.2103 33.5153 18.8655 33.2172 18.7453C32.6272 18.5011 31.9715 18.5323 31.4203 18.7911C31.2088 18.2162 30.7655 17.7348 30.1755 17.4906C29.8764 17.3657 29.5317 17.51 29.4114 17.8082C29.2866 18.1073 29.4309 18.452 29.729 18.5723L29.7272 18.575Z" fill="#F24922"/>
<path d="M25.7606 14.5729C26.1933 14.7515 26.4602 15.2018 26.4108 15.6656C26.3869 15.8902 26.4904 16.1012 26.6676 16.2196C26.7167 16.2523 26.7713 16.2769 26.8285 16.2915C27.0758 16.4291 27.3905 16.3711 27.5743 16.143C27.8656 15.7777 28.3713 15.6463 28.804 15.8249C29.1031 15.9497 29.4479 15.8054 29.57 15.5045C29.6948 15.2054 29.5505 14.8607 29.2523 14.7404C28.6624 14.4962 28.0067 14.5275 27.4536 14.7889C27.2422 14.214 26.7988 13.7326 26.2089 13.4884C25.9098 13.3636 25.565 13.5079 25.4429 13.8088C25.3181 14.1078 25.4642 14.4499 25.7606 14.5729Z" fill="#F24922"/>
<path d="M38.4921 31.4382C38.4967 31.2836 38.4405 31.1317 38.3351 31.018L36.2564 28.7701L40.8989 17.5034C40.9599 17.3589 40.9564 17.1988 40.8992 17.0542C40.8402 16.9123 40.7249 16.7958 40.5812 16.7393L12.6199 5.221C12.4781 5.16177 12.3153 5.16345 12.1707 5.22062C12.0288 5.27961 11.9123 5.39499 11.8558 5.53863L6.49162 18.5589C6.40233 18.7752 6.45304 19.0181 6.60295 19.1773L27.1405 41.3744C27.1732 41.4081 27.2078 41.4391 27.246 41.4645C27.3359 41.5246 27.4396 41.5584 27.5469 41.563C27.7015 41.5677 27.8534 41.5114 27.9671 41.406L38.3008 31.8427C38.4145 31.7373 38.4819 31.5892 38.4893 31.4364L38.4921 31.4382ZM12.717 6.52781L39.5938 17.5978L34.678 29.5336L7.80117 18.4636L12.717 6.52781ZM27.6035 40.1499L9.27369 20.3381L11.349 21.1918L16.1861 26.4174C16.2188 26.451 16.2534 26.482 16.2915 26.5075C16.5124 26.655 16.8116 26.638 17.0154 26.4508C17.2529 26.2309 17.2687 25.859 17.0488 25.6215L13.9344 22.2561L16.0743 23.1372L21.2339 28.7122C21.2666 28.7459 21.3011 28.7768 21.3393 28.8023C21.5601 28.9498 21.8593 28.9328 22.0632 28.7456C22.3007 28.5258 22.3165 28.1539 22.0966 27.9163L18.6596 24.2015L25.5147 27.0253L29.3196 31.1396C29.3524 31.1733 29.3869 31.2042 29.4251 31.2297C29.6459 31.3772 29.9451 31.3602 30.149 31.173C30.3865 30.9532 30.4022 30.5813 30.1824 30.3437L28.0955 28.0905L30.2353 28.9716L33.8232 32.8502C33.8559 32.8839 33.8904 32.9148 33.9286 32.9403C34.1494 33.0878 34.4486 33.0708 34.6525 32.8836C34.89 32.6638 34.9058 32.2919 34.6859 32.0543L32.8179 30.034L34.7851 30.8432C35.0842 30.968 35.429 30.8237 35.5492 30.5255L35.7789 29.9692L37.0917 31.3861L27.6181 40.1517L27.6035 40.1499Z" fill="#F24922"/>
<path d="M25.0995 34.3297L18.746 27.4606C18.5262 27.2231 18.1542 27.2073 17.9167 27.4272C17.6792 27.647 17.6634 28.019 17.8833 28.2565L24.2367 35.1256C24.2694 35.1592 24.304 35.1902 24.3421 35.2157C24.563 35.3632 24.8622 35.3461 25.066 35.159C25.3036 34.9391 25.3193 34.5672 25.0995 34.3297Z" fill="#F24922"/>
<path d="M29.9544 36.4174L23.8845 29.8559C23.6646 29.6184 23.2927 29.6026 23.0551 29.8225C22.8176 30.0423 22.8019 30.4142 23.0217 30.6517L29.0917 37.2132C29.1244 37.2469 29.1589 37.2778 29.1971 37.3033C29.418 37.4508 29.7171 37.4338 29.921 37.2467C30.1585 37.0268 30.1743 36.6549 29.9544 36.4174Z" fill="#F24922"/>
<path d="M31.5254 34.9625L24.3134 27.1652C24.0935 26.9277 23.7216 26.9119 23.4841 27.1318C23.2466 27.3516 23.2308 27.7236 23.4507 27.9611L30.6627 35.7584C30.6954 35.7921 30.7299 35.823 30.7681 35.8485C30.9889 35.996 31.2881 35.979 31.492 35.7918C31.7295 35.572 31.7453 35.2 31.5254 34.9625Z" fill="#F24922"/>
<path d="M33.0977 33.5053L32.2337 32.5734C32.0138 32.3359 31.6419 32.3201 31.4044 32.54C31.1669 32.7598 31.1511 33.1318 31.371 33.3693L32.235 34.3012C32.2677 34.3348 32.3022 34.3658 32.3404 34.3913C32.5613 34.5388 32.8604 34.5218 33.0643 34.3346C33.3018 34.1147 33.3176 33.7428 33.0977 33.5053Z" fill="#F24922"/>
</svg>
